<mxfile host="app.diagrams.net" agent="Mozilla/5.0 (Windows NT 10.0; Win64; x64) AppleWebKit/537.36 (KHTML, like Gecko) Chrome/131.0.0.0 Safari/537.36 OPR/116.0.0.0" version="26.1.0">
  <diagram name="Page-1" id="kYGylHji6Wq-BecE1PAi">
    <mxGraphModel dx="1420" dy="2403" grid="1" gridSize="10" guides="1" tooltips="1" connect="1" arrows="1" fold="1" page="1" pageScale="1" pageWidth="850" pageHeight="1100" math="0" shadow="0">
      <root>
        <mxCell id="0" />
        <mxCell id="1" parent="0" />
        <mxCell id="ud8ChuTrlsNvuFz3QuCy-1" value="Board game application" style="shape=umlFrame;whiteSpace=wrap;html=1;pointerEvents=0;width=90;height=50;" vertex="1" parent="1">
          <mxGeometry x="270" y="-800" width="2800" height="2930" as="geometry" />
        </mxCell>
        <mxCell id="ud8ChuTrlsNvuFz3QuCy-2" value="Existing Player" style="shape=umlActor;verticalLabelPosition=bottom;verticalAlign=top;html=1;" vertex="1" parent="1">
          <mxGeometry x="120" y="590" width="30" height="60" as="geometry" />
        </mxCell>
        <mxCell id="ud8ChuTrlsNvuFz3QuCy-3" value="New (Unregistered) Player" style="shape=umlActor;verticalLabelPosition=bottom;verticalAlign=top;html=1;" vertex="1" parent="1">
          <mxGeometry x="160" y="-720" width="30" height="60" as="geometry" />
        </mxCell>
        <mxCell id="ud8ChuTrlsNvuFz3QuCy-10" value="Select Create an Account" style="ellipse;whiteSpace=wrap;html=1;" vertex="1" parent="1">
          <mxGeometry x="407" y="-761.5" width="150" height="70" as="geometry" />
        </mxCell>
        <mxCell id="ud8ChuTrlsNvuFz3QuCy-12" value="Create Username" style="ellipse;whiteSpace=wrap;html=1;" vertex="1" parent="1">
          <mxGeometry x="1122" y="-761.5" width="140" height="70" as="geometry" />
        </mxCell>
        <mxCell id="ud8ChuTrlsNvuFz3QuCy-16" value="Create Password" style="ellipse;whiteSpace=wrap;html=1;" vertex="1" parent="1">
          <mxGeometry x="1647" y="-761.5" width="140" height="70" as="geometry" />
        </mxCell>
        <mxCell id="ud8ChuTrlsNvuFz3QuCy-18" value="Add E-mail Address" style="ellipse;whiteSpace=wrap;html=1;" vertex="1" parent="1">
          <mxGeometry x="707" y="-761.5" width="140" height="70" as="geometry" />
        </mxCell>
        <mxCell id="ud8ChuTrlsNvuFz3QuCy-20" value="Add new Profile to Profile Database" style="ellipse;whiteSpace=wrap;html=1;" vertex="1" parent="1">
          <mxGeometry x="2857" y="-769" width="150" height="85" as="geometry" />
        </mxCell>
        <mxCell id="ud8ChuTrlsNvuFz3QuCy-22" value="Server" style="shape=umlActor;verticalLabelPosition=bottom;verticalAlign=top;html=1;" vertex="1" parent="1">
          <mxGeometry x="3200" y="940" width="30" height="60" as="geometry" />
        </mxCell>
        <mxCell id="ud8ChuTrlsNvuFz3QuCy-24" value="" style="endArrow=none;html=1;rounded=0;exitX=1;exitY=0.5;exitDx=0;exitDy=0;" edge="1" parent="1" source="ud8ChuTrlsNvuFz3QuCy-20">
          <mxGeometry width="50" height="50" relative="1" as="geometry">
            <mxPoint x="1490" y="310" as="sourcePoint" />
            <mxPoint x="3170" y="960" as="targetPoint" />
          </mxGeometry>
        </mxCell>
        <mxCell id="ud8ChuTrlsNvuFz3QuCy-25" value="&amp;lt;&amp;lt;include&amp;gt;&amp;gt;" style="endArrow=open;endSize=12;dashed=1;html=1;rounded=0;entryX=0;entryY=0.5;entryDx=0;entryDy=0;exitX=1;exitY=0.5;exitDx=0;exitDy=0;" edge="1" parent="1" source="ud8ChuTrlsNvuFz3QuCy-16" target="ud8ChuTrlsNvuFz3QuCy-20">
          <mxGeometry width="160" relative="1" as="geometry">
            <mxPoint x="1347" y="-499" as="sourcePoint" />
            <mxPoint x="1507" y="-499" as="targetPoint" />
          </mxGeometry>
        </mxCell>
        <mxCell id="ud8ChuTrlsNvuFz3QuCy-26" value="&amp;lt;&amp;lt;include&amp;gt;&amp;gt;" style="endArrow=open;endSize=12;dashed=1;html=1;rounded=0;entryX=0;entryY=0.5;entryDx=0;entryDy=0;exitX=1;exitY=0.5;exitDx=0;exitDy=0;" edge="1" parent="1" source="ud8ChuTrlsNvuFz3QuCy-12" target="ud8ChuTrlsNvuFz3QuCy-16">
          <mxGeometry width="160" relative="1" as="geometry">
            <mxPoint x="1188" y="-671" as="sourcePoint" />
            <mxPoint x="1597" y="-691" as="targetPoint" />
          </mxGeometry>
        </mxCell>
        <mxCell id="ud8ChuTrlsNvuFz3QuCy-27" value="&amp;lt;&amp;lt;include&amp;gt;&amp;gt;" style="endArrow=open;endSize=12;dashed=1;html=1;rounded=0;entryX=0;entryY=0.5;entryDx=0;entryDy=0;exitX=1;exitY=0.5;exitDx=0;exitDy=0;" edge="1" parent="1" source="ud8ChuTrlsNvuFz3QuCy-18" target="ud8ChuTrlsNvuFz3QuCy-12">
          <mxGeometry width="160" relative="1" as="geometry">
            <mxPoint x="946" y="-671" as="sourcePoint" />
            <mxPoint x="1048" y="-671" as="targetPoint" />
          </mxGeometry>
        </mxCell>
        <mxCell id="ud8ChuTrlsNvuFz3QuCy-28" value="&amp;lt;&amp;lt;include&amp;gt;&amp;gt;" style="endArrow=open;endSize=12;dashed=1;html=1;rounded=0;entryX=0;entryY=0.5;entryDx=0;entryDy=0;exitX=1;exitY=0.5;exitDx=0;exitDy=0;" edge="1" parent="1" source="ud8ChuTrlsNvuFz3QuCy-10" target="ud8ChuTrlsNvuFz3QuCy-18">
          <mxGeometry width="160" relative="1" as="geometry">
            <mxPoint x="956" y="-661" as="sourcePoint" />
            <mxPoint x="1058" y="-661" as="targetPoint" />
          </mxGeometry>
        </mxCell>
        <mxCell id="ud8ChuTrlsNvuFz3QuCy-29" value="" style="endArrow=none;html=1;rounded=0;entryX=0;entryY=0.5;entryDx=0;entryDy=0;" edge="1" parent="1" target="ud8ChuTrlsNvuFz3QuCy-10">
          <mxGeometry width="50" height="50" relative="1" as="geometry">
            <mxPoint x="197" y="-689" as="sourcePoint" />
            <mxPoint x="767" y="-499" as="targetPoint" />
          </mxGeometry>
        </mxCell>
        <mxCell id="ud8ChuTrlsNvuFz3QuCy-32" style="rounded=0;orthogonalLoop=1;jettySize=auto;html=1;entryX=0;entryY=0.5;entryDx=0;entryDy=0;endArrow=none;startFill=0;" edge="1" parent="1" target="ud8ChuTrlsNvuFz3QuCy-33">
          <mxGeometry relative="1" as="geometry">
            <mxPoint x="156" y="627" as="sourcePoint" />
          </mxGeometry>
        </mxCell>
        <mxCell id="ud8ChuTrlsNvuFz3QuCy-33" value="Select Game" style="ellipse;whiteSpace=wrap;html=1;" vertex="1" parent="1">
          <mxGeometry x="286" y="592" width="150" height="70" as="geometry" />
        </mxCell>
        <mxCell id="ud8ChuTrlsNvuFz3QuCy-158" value="" style="edgeStyle=orthogonalEdgeStyle;rounded=0;orthogonalLoop=1;jettySize=auto;html=1;" edge="1" parent="1" source="ud8ChuTrlsNvuFz3QuCy-34" target="ud8ChuTrlsNvuFz3QuCy-157">
          <mxGeometry relative="1" as="geometry" />
        </mxCell>
        <mxCell id="ud8ChuTrlsNvuFz3QuCy-34" value="Checkers" style="ellipse;whiteSpace=wrap;html=1;" vertex="1" parent="1">
          <mxGeometry x="513.5" y="512" width="140" height="70" as="geometry" />
        </mxCell>
        <mxCell id="ud8ChuTrlsNvuFz3QuCy-35" style="edgeStyle=orthogonalEdgeStyle;rounded=0;orthogonalLoop=1;jettySize=auto;html=1;endArrow=block;endFill=0;" edge="1" parent="1">
          <mxGeometry relative="1" as="geometry">
            <mxPoint x="436" y="627" as="targetPoint" />
            <mxPoint x="516" y="627" as="sourcePoint" />
          </mxGeometry>
        </mxCell>
        <mxCell id="ud8ChuTrlsNvuFz3QuCy-36" style="edgeStyle=orthogonalEdgeStyle;rounded=0;orthogonalLoop=1;jettySize=auto;html=1;entryX=1;entryY=0.5;entryDx=0;entryDy=0;endArrow=block;endFill=0;exitX=0;exitY=0.5;exitDx=0;exitDy=0;" edge="1" parent="1" source="ud8ChuTrlsNvuFz3QuCy-37">
          <mxGeometry relative="1" as="geometry">
            <Array as="points">
              <mxPoint x="486" y="702" />
              <mxPoint x="486" y="627" />
            </Array>
            <mxPoint x="436" y="627" as="targetPoint" />
          </mxGeometry>
        </mxCell>
        <mxCell id="ud8ChuTrlsNvuFz3QuCy-160" style="edgeStyle=orthogonalEdgeStyle;rounded=0;orthogonalLoop=1;jettySize=auto;html=1;exitX=0.5;exitY=0;exitDx=0;exitDy=0;entryX=1;entryY=1;entryDx=0;entryDy=0;" edge="1" parent="1" source="ud8ChuTrlsNvuFz3QuCy-37" target="ud8ChuTrlsNvuFz3QuCy-157">
          <mxGeometry relative="1" as="geometry">
            <Array as="points">
              <mxPoint x="700" y="672" />
              <mxPoint x="700" y="516" />
              <mxPoint x="711" y="516" />
            </Array>
          </mxGeometry>
        </mxCell>
        <mxCell id="ud8ChuTrlsNvuFz3QuCy-37" value="Connect Four" style="ellipse;whiteSpace=wrap;html=1;" vertex="1" parent="1">
          <mxGeometry x="516" y="672" width="135" height="60" as="geometry" />
        </mxCell>
        <mxCell id="ud8ChuTrlsNvuFz3QuCy-38" style="edgeStyle=orthogonalEdgeStyle;rounded=0;orthogonalLoop=1;jettySize=auto;html=1;exitX=0;exitY=0.5;exitDx=0;exitDy=0;entryX=1;entryY=0.5;entryDx=0;entryDy=0;endArrow=block;endFill=0;" edge="1" parent="1" source="ud8ChuTrlsNvuFz3QuCy-34" target="ud8ChuTrlsNvuFz3QuCy-33">
          <mxGeometry relative="1" as="geometry">
            <mxPoint x="661" y="572" as="sourcePoint" />
            <mxPoint x="436" y="627" as="targetPoint" />
            <Array as="points">
              <mxPoint x="486" y="547" />
              <mxPoint x="486" y="627" />
            </Array>
          </mxGeometry>
        </mxCell>
        <mxCell id="ud8ChuTrlsNvuFz3QuCy-159" style="edgeStyle=orthogonalEdgeStyle;rounded=0;orthogonalLoop=1;jettySize=auto;html=1;exitX=0.5;exitY=0;exitDx=0;exitDy=0;entryX=0;entryY=0.5;entryDx=0;entryDy=0;" edge="1" parent="1" source="ud8ChuTrlsNvuFz3QuCy-39" target="ud8ChuTrlsNvuFz3QuCy-157">
          <mxGeometry relative="1" as="geometry">
            <Array as="points">
              <mxPoint x="520" y="592" />
              <mxPoint x="520" y="476" />
              <mxPoint x="490" y="476" />
              <mxPoint x="490" y="325" />
            </Array>
          </mxGeometry>
        </mxCell>
        <mxCell id="ud8ChuTrlsNvuFz3QuCy-39" value="Tic Tac Toe" style="ellipse;whiteSpace=wrap;html=1;" vertex="1" parent="1">
          <mxGeometry x="516" y="592" width="150" height="70" as="geometry" />
        </mxCell>
        <mxCell id="ud8ChuTrlsNvuFz3QuCy-40" style="rounded=0;orthogonalLoop=1;jettySize=auto;html=1;entryX=0.5;entryY=1;entryDx=0;entryDy=0;" edge="1" parent="1" target="ud8ChuTrlsNvuFz3QuCy-42">
          <mxGeometry relative="1" as="geometry">
            <mxPoint x="667" y="627" as="sourcePoint" />
          </mxGeometry>
        </mxCell>
        <mxCell id="ud8ChuTrlsNvuFz3QuCy-41" value="" style="group" vertex="1" connectable="0" parent="1">
          <mxGeometry x="767" y="459" width="69.07" height="130" as="geometry" />
        </mxCell>
        <mxCell id="ud8ChuTrlsNvuFz3QuCy-42" value="Exit" style="ellipse;whiteSpace=wrap;html=1;" vertex="1" parent="ud8ChuTrlsNvuFz3QuCy-41">
          <mxGeometry y="90.60606060606062" width="69.06999999999998" height="39.39393939393939" as="geometry" />
        </mxCell>
        <mxCell id="ud8ChuTrlsNvuFz3QuCy-43" value="Disconnect" style="ellipse;whiteSpace=wrap;html=1;" vertex="1" parent="ud8ChuTrlsNvuFz3QuCy-41">
          <mxGeometry y="21" width="69.06999999999998" height="39.39393939393939" as="geometry" />
        </mxCell>
        <mxCell id="ud8ChuTrlsNvuFz3QuCy-44" style="edgeStyle=orthogonalEdgeStyle;rounded=0;orthogonalLoop=1;jettySize=auto;html=1;exitX=0.5;exitY=1;exitDx=0;exitDy=0;entryX=0.5;entryY=0;entryDx=0;entryDy=0;" edge="1" parent="ud8ChuTrlsNvuFz3QuCy-41" source="ud8ChuTrlsNvuFz3QuCy-43" target="ud8ChuTrlsNvuFz3QuCy-42">
          <mxGeometry relative="1" as="geometry" />
        </mxCell>
        <mxCell id="ud8ChuTrlsNvuFz3QuCy-45" value="&amp;lt;&amp;lt;extends&amp;gt;&amp;gt;" style="edgeLabel;html=1;align=center;verticalAlign=middle;resizable=0;points=[];" vertex="1" connectable="0" parent="ud8ChuTrlsNvuFz3QuCy-44">
          <mxGeometry x="-0.1012" y="-1" relative="1" as="geometry">
            <mxPoint as="offset" />
          </mxGeometry>
        </mxCell>
        <mxCell id="ud8ChuTrlsNvuFz3QuCy-46" value="Input Position" style="ellipse;whiteSpace=wrap;html=1;" vertex="1" parent="1">
          <mxGeometry x="767" y="607.3" width="90" height="39.39" as="geometry" />
        </mxCell>
        <mxCell id="ud8ChuTrlsNvuFz3QuCy-47" value="" style="edgeStyle=orthogonalEdgeStyle;rounded=0;orthogonalLoop=1;jettySize=auto;html=1;exitX=0;exitY=0.5;exitDx=0;exitDy=0;entryX=1;entryY=0.5;entryDx=0;entryDy=0;" edge="1" parent="1" source="ud8ChuTrlsNvuFz3QuCy-51" target="ud8ChuTrlsNvuFz3QuCy-46">
          <mxGeometry relative="1" as="geometry" />
        </mxCell>
        <mxCell id="ud8ChuTrlsNvuFz3QuCy-48" value="&amp;lt;&amp;lt;extends&amp;gt;&amp;gt;" style="edgeLabel;html=1;align=center;verticalAlign=middle;resizable=0;points=[];" vertex="1" connectable="0" parent="ud8ChuTrlsNvuFz3QuCy-47">
          <mxGeometry x="-0.1057" y="1" relative="1" as="geometry">
            <mxPoint y="-2" as="offset" />
          </mxGeometry>
        </mxCell>
        <mxCell id="ud8ChuTrlsNvuFz3QuCy-49" style="edgeStyle=orthogonalEdgeStyle;rounded=0;orthogonalLoop=1;jettySize=auto;html=1;exitX=0.5;exitY=1;exitDx=0;exitDy=0;entryX=0.5;entryY=0;entryDx=0;entryDy=0;" edge="1" parent="1" source="ud8ChuTrlsNvuFz3QuCy-51" target="ud8ChuTrlsNvuFz3QuCy-52">
          <mxGeometry relative="1" as="geometry" />
        </mxCell>
        <mxCell id="ud8ChuTrlsNvuFz3QuCy-50" value="&amp;lt;&amp;lt;includes&amp;gt;&amp;gt;" style="edgeLabel;html=1;align=center;verticalAlign=middle;resizable=0;points=[];" vertex="1" connectable="0" parent="ud8ChuTrlsNvuFz3QuCy-49">
          <mxGeometry x="-0.0425" relative="1" as="geometry">
            <mxPoint as="offset" />
          </mxGeometry>
        </mxCell>
        <mxCell id="ud8ChuTrlsNvuFz3QuCy-51" value="Handle Input" style="ellipse;whiteSpace=wrap;html=1;" vertex="1" parent="1">
          <mxGeometry x="957.47" y="607.3" width="90" height="39.39" as="geometry" />
        </mxCell>
        <mxCell id="ud8ChuTrlsNvuFz3QuCy-52" value="Validate Input" style="ellipse;whiteSpace=wrap;html=1;" vertex="1" parent="1">
          <mxGeometry x="957.47" y="682" width="90" height="39.39" as="geometry" />
        </mxCell>
        <mxCell id="ud8ChuTrlsNvuFz3QuCy-53" style="edgeStyle=orthogonalEdgeStyle;rounded=0;orthogonalLoop=1;jettySize=auto;html=1;entryX=0;entryY=0.5;entryDx=0;entryDy=0;" edge="1" parent="1" target="ud8ChuTrlsNvuFz3QuCy-46">
          <mxGeometry relative="1" as="geometry">
            <mxPoint x="667" y="627" as="sourcePoint" />
          </mxGeometry>
        </mxCell>
        <mxCell id="ud8ChuTrlsNvuFz3QuCy-54" value="Settings" style="ellipse;whiteSpace=wrap;html=1;" vertex="1" parent="1">
          <mxGeometry x="760" y="662" width="90" height="39.39" as="geometry" />
        </mxCell>
        <mxCell id="ud8ChuTrlsNvuFz3QuCy-55" style="edgeStyle=orthogonalEdgeStyle;rounded=0;orthogonalLoop=1;jettySize=auto;html=1;exitX=0.5;exitY=0;exitDx=0;exitDy=0;entryX=0.5;entryY=1;entryDx=0;entryDy=0;" edge="1" parent="1" source="ud8ChuTrlsNvuFz3QuCy-57" target="ud8ChuTrlsNvuFz3QuCy-54">
          <mxGeometry relative="1" as="geometry" />
        </mxCell>
        <mxCell id="ud8ChuTrlsNvuFz3QuCy-56" value="&amp;lt;&amp;lt;extends&amp;gt;&amp;gt;" style="edgeLabel;html=1;align=center;verticalAlign=middle;resizable=0;points=[];" vertex="1" connectable="0" parent="ud8ChuTrlsNvuFz3QuCy-55">
          <mxGeometry x="-0.0448" relative="1" as="geometry">
            <mxPoint as="offset" />
          </mxGeometry>
        </mxCell>
        <mxCell id="ud8ChuTrlsNvuFz3QuCy-57" value="Return to game" style="ellipse;whiteSpace=wrap;html=1;" vertex="1" parent="1">
          <mxGeometry x="760" y="735" width="90" height="39.39" as="geometry" />
        </mxCell>
        <mxCell id="ud8ChuTrlsNvuFz3QuCy-58" style="rounded=0;orthogonalLoop=1;jettySize=auto;html=1;entryX=0;entryY=0;entryDx=0;entryDy=0;" edge="1" parent="1" target="ud8ChuTrlsNvuFz3QuCy-54">
          <mxGeometry relative="1" as="geometry">
            <mxPoint x="667" y="627" as="sourcePoint" />
          </mxGeometry>
        </mxCell>
        <mxCell id="ud8ChuTrlsNvuFz3QuCy-59" style="rounded=0;orthogonalLoop=1;jettySize=auto;html=1;exitX=0;exitY=0.5;exitDx=0;exitDy=0;entryX=1;entryY=0.5;entryDx=0;entryDy=0;" edge="1" parent="1" source="ud8ChuTrlsNvuFz3QuCy-65" target="ud8ChuTrlsNvuFz3QuCy-51">
          <mxGeometry relative="1" as="geometry" />
        </mxCell>
        <mxCell id="ud8ChuTrlsNvuFz3QuCy-60" value="&amp;lt;&amp;lt;extends&amp;gt;&amp;gt;" style="edgeLabel;html=1;align=center;verticalAlign=middle;resizable=0;points=[];" vertex="1" connectable="0" parent="ud8ChuTrlsNvuFz3QuCy-59">
          <mxGeometry x="0.0113" y="-1" relative="1" as="geometry">
            <mxPoint as="offset" />
          </mxGeometry>
        </mxCell>
        <mxCell id="ud8ChuTrlsNvuFz3QuCy-61" style="rounded=0;orthogonalLoop=1;jettySize=auto;html=1;entryX=0;entryY=0.5;entryDx=0;entryDy=0;exitX=1;exitY=0.5;exitDx=0;exitDy=0;" edge="1" parent="1" source="ud8ChuTrlsNvuFz3QuCy-65" target="ud8ChuTrlsNvuFz3QuCy-68">
          <mxGeometry relative="1" as="geometry">
            <mxPoint x="1174" y="613" as="sourcePoint" />
          </mxGeometry>
        </mxCell>
        <mxCell id="ud8ChuTrlsNvuFz3QuCy-62" value="&amp;lt;&amp;lt;includes&amp;gt;&amp;gt;" style="edgeLabel;html=1;align=center;verticalAlign=middle;resizable=0;points=[];" vertex="1" connectable="0" parent="ud8ChuTrlsNvuFz3QuCy-61">
          <mxGeometry x="-0.0217" y="2" relative="1" as="geometry">
            <mxPoint y="1" as="offset" />
          </mxGeometry>
        </mxCell>
        <mxCell id="ud8ChuTrlsNvuFz3QuCy-63" style="rounded=0;orthogonalLoop=1;jettySize=auto;html=1;exitX=0.5;exitY=0;exitDx=0;exitDy=0;entryX=0.5;entryY=1;entryDx=0;entryDy=0;" edge="1" parent="1" source="ud8ChuTrlsNvuFz3QuCy-65" target="ud8ChuTrlsNvuFz3QuCy-79">
          <mxGeometry relative="1" as="geometry" />
        </mxCell>
        <mxCell id="ud8ChuTrlsNvuFz3QuCy-64" value="&amp;lt;&amp;lt;includes&amp;gt;&amp;gt;" style="edgeLabel;html=1;align=center;verticalAlign=middle;resizable=0;points=[];" vertex="1" connectable="0" parent="ud8ChuTrlsNvuFz3QuCy-63">
          <mxGeometry x="-0.2037" y="1" relative="1" as="geometry">
            <mxPoint as="offset" />
          </mxGeometry>
        </mxCell>
        <mxCell id="ud8ChuTrlsNvuFz3QuCy-65" value="Select Tile" style="ellipse;whiteSpace=wrap;html=1;" vertex="1" parent="1">
          <mxGeometry x="1157" y="607.31" width="90" height="39.39" as="geometry" />
        </mxCell>
        <mxCell id="ud8ChuTrlsNvuFz3QuCy-66" style="edgeStyle=orthogonalEdgeStyle;rounded=0;orthogonalLoop=1;jettySize=auto;html=1;exitX=0.5;exitY=1;exitDx=0;exitDy=0;entryX=0.5;entryY=0;entryDx=0;entryDy=0;" edge="1" parent="1" source="ud8ChuTrlsNvuFz3QuCy-68" target="ud8ChuTrlsNvuFz3QuCy-69">
          <mxGeometry relative="1" as="geometry" />
        </mxCell>
        <mxCell id="ud8ChuTrlsNvuFz3QuCy-67" value="&amp;lt;&amp;lt;includes&amp;gt;&amp;gt;" style="edgeLabel;html=1;align=center;verticalAlign=middle;resizable=0;points=[];" vertex="1" connectable="0" parent="ud8ChuTrlsNvuFz3QuCy-66">
          <mxGeometry x="-0.0186" relative="1" as="geometry">
            <mxPoint as="offset" />
          </mxGeometry>
        </mxCell>
        <mxCell id="ud8ChuTrlsNvuFz3QuCy-68" value="&lt;font&gt;Update Hint Status&lt;/font&gt;" style="ellipse;whiteSpace=wrap;html=1;" vertex="1" parent="1">
          <mxGeometry x="1337" y="607.31" width="129.53" height="39.39" as="geometry" />
        </mxCell>
        <mxCell id="ud8ChuTrlsNvuFz3QuCy-69" value="&lt;font&gt;Highlight tiles that can be selected&lt;/font&gt;" style="ellipse;whiteSpace=wrap;html=1;" vertex="1" parent="1">
          <mxGeometry x="1326.76" y="732" width="150" height="49.39" as="geometry" />
        </mxCell>
        <mxCell id="ud8ChuTrlsNvuFz3QuCy-70" style="edgeStyle=orthogonalEdgeStyle;rounded=0;orthogonalLoop=1;jettySize=auto;html=1;exitX=1;exitY=0.5;exitDx=0;exitDy=0;entryX=0;entryY=0.5;entryDx=0;entryDy=0;" edge="1" parent="1" source="ud8ChuTrlsNvuFz3QuCy-79" target="ud8ChuTrlsNvuFz3QuCy-78">
          <mxGeometry relative="1" as="geometry" />
        </mxCell>
        <mxCell id="ud8ChuTrlsNvuFz3QuCy-71" value="&amp;lt;&amp;lt;includes&amp;gt;" style="edgeLabel;html=1;align=center;verticalAlign=middle;resizable=0;points=[];" vertex="1" connectable="0" parent="ud8ChuTrlsNvuFz3QuCy-70">
          <mxGeometry x="-0.059" y="2" relative="1" as="geometry">
            <mxPoint as="offset" />
          </mxGeometry>
        </mxCell>
        <mxCell id="ud8ChuTrlsNvuFz3QuCy-72" style="rounded=0;orthogonalLoop=1;jettySize=auto;html=1;exitX=1;exitY=0;exitDx=0;exitDy=0;entryX=0;entryY=1;entryDx=0;entryDy=0;" edge="1" parent="1" source="ud8ChuTrlsNvuFz3QuCy-78" target="ud8ChuTrlsNvuFz3QuCy-88">
          <mxGeometry relative="1" as="geometry" />
        </mxCell>
        <mxCell id="ud8ChuTrlsNvuFz3QuCy-73" value="&amp;lt;&amp;lt;includes&amp;gt;&amp;gt;" style="edgeLabel;html=1;align=center;verticalAlign=middle;resizable=0;points=[];" vertex="1" connectable="0" parent="ud8ChuTrlsNvuFz3QuCy-72">
          <mxGeometry x="-0.0458" y="5" relative="1" as="geometry">
            <mxPoint as="offset" />
          </mxGeometry>
        </mxCell>
        <mxCell id="ud8ChuTrlsNvuFz3QuCy-74" style="edgeStyle=orthogonalEdgeStyle;rounded=0;orthogonalLoop=1;jettySize=auto;html=1;exitX=1;exitY=0.5;exitDx=0;exitDy=0;entryX=0;entryY=0.5;entryDx=0;entryDy=0;" edge="1" parent="1" source="ud8ChuTrlsNvuFz3QuCy-78" target="ud8ChuTrlsNvuFz3QuCy-89">
          <mxGeometry relative="1" as="geometry" />
        </mxCell>
        <mxCell id="ud8ChuTrlsNvuFz3QuCy-75" value="&amp;lt;&amp;lt;includes&amp;gt;&amp;gt;" style="edgeLabel;html=1;align=center;verticalAlign=middle;resizable=0;points=[];" vertex="1" connectable="0" parent="ud8ChuTrlsNvuFz3QuCy-74">
          <mxGeometry x="-0.1284" y="-1" relative="1" as="geometry">
            <mxPoint y="-2" as="offset" />
          </mxGeometry>
        </mxCell>
        <mxCell id="ud8ChuTrlsNvuFz3QuCy-76" style="rounded=0;orthogonalLoop=1;jettySize=auto;html=1;exitX=1;exitY=1;exitDx=0;exitDy=0;entryX=0;entryY=0;entryDx=0;entryDy=0;" edge="1" parent="1" source="ud8ChuTrlsNvuFz3QuCy-78" target="ud8ChuTrlsNvuFz3QuCy-90">
          <mxGeometry relative="1" as="geometry" />
        </mxCell>
        <mxCell id="ud8ChuTrlsNvuFz3QuCy-77" value="&amp;lt;&amp;lt;includes&amp;gt;&amp;gt;" style="edgeLabel;html=1;align=center;verticalAlign=middle;resizable=0;points=[];" vertex="1" connectable="0" parent="ud8ChuTrlsNvuFz3QuCy-76">
          <mxGeometry x="-0.0636" relative="1" as="geometry">
            <mxPoint as="offset" />
          </mxGeometry>
        </mxCell>
        <mxCell id="ud8ChuTrlsNvuFz3QuCy-78" value="Determine If The Game Should End" style="ellipse;whiteSpace=wrap;html=1;" vertex="1" parent="1">
          <mxGeometry x="1370" y="520" width="160" height="49.39" as="geometry" />
        </mxCell>
        <mxCell id="ud8ChuTrlsNvuFz3QuCy-79" value="Update Game Status" style="ellipse;whiteSpace=wrap;html=1;" vertex="1" parent="1">
          <mxGeometry x="1147.47" y="520.0044746476755" width="111.43080000000002" height="41.36552535232459" as="geometry" />
        </mxCell>
        <mxCell id="ud8ChuTrlsNvuFz3QuCy-80" value="Update Turn Status" style="ellipse;whiteSpace=wrap;html=1;" vertex="1" parent="1">
          <mxGeometry x="1147.47" y="425.0122373238377" width="111.43080000000002" height="41.36552535232459" as="geometry" />
        </mxCell>
        <mxCell id="ud8ChuTrlsNvuFz3QuCy-81" value="Update Board Selections" style="ellipse;whiteSpace=wrap;html=1;" vertex="1" parent="1">
          <mxGeometry x="1345.5692" y="389.50764832739856" width="111.43080000000002" height="41.36552535232459" as="geometry" />
        </mxCell>
        <mxCell id="ud8ChuTrlsNvuFz3QuCy-82" style="edgeStyle=orthogonalEdgeStyle;rounded=0;orthogonalLoop=1;jettySize=auto;html=1;exitX=0.5;exitY=0;exitDx=0;exitDy=0;entryX=0.5;entryY=1;entryDx=0;entryDy=0;" edge="1" parent="1" source="ud8ChuTrlsNvuFz3QuCy-79" target="ud8ChuTrlsNvuFz3QuCy-80">
          <mxGeometry relative="1" as="geometry" />
        </mxCell>
        <mxCell id="ud8ChuTrlsNvuFz3QuCy-83" value="&amp;lt;&amp;lt;includes&amp;gt;&amp;gt;" style="edgeLabel;html=1;align=center;verticalAlign=middle;resizable=0;points=[];" vertex="1" connectable="0" parent="ud8ChuTrlsNvuFz3QuCy-82">
          <mxGeometry x="-0.008" y="2" relative="1" as="geometry">
            <mxPoint x="1" y="3" as="offset" />
          </mxGeometry>
        </mxCell>
        <mxCell id="ud8ChuTrlsNvuFz3QuCy-84" style="edgeStyle=orthogonalEdgeStyle;rounded=0;orthogonalLoop=1;jettySize=auto;html=1;exitX=0.5;exitY=0;exitDx=0;exitDy=0;entryX=0.5;entryY=1;entryDx=0;entryDy=0;" edge="1" parent="1" source="ud8ChuTrlsNvuFz3QuCy-80" target="ud8ChuTrlsNvuFz3QuCy-91">
          <mxGeometry relative="1" as="geometry">
            <mxPoint x="1203.47" y="378" as="targetPoint" />
          </mxGeometry>
        </mxCell>
        <mxCell id="ud8ChuTrlsNvuFz3QuCy-85" value="&amp;lt;&amp;lt;includes&amp;gt;&amp;gt;" style="edgeLabel;html=1;align=center;verticalAlign=middle;resizable=0;points=[];" vertex="1" connectable="0" parent="ud8ChuTrlsNvuFz3QuCy-84">
          <mxGeometry x="0.1327" relative="1" as="geometry">
            <mxPoint y="6" as="offset" />
          </mxGeometry>
        </mxCell>
        <mxCell id="ud8ChuTrlsNvuFz3QuCy-86" style="rounded=0;orthogonalLoop=1;jettySize=auto;html=1;exitX=1;exitY=0;exitDx=0;exitDy=0;entryX=0;entryY=1;entryDx=0;entryDy=0;" edge="1" parent="1" source="ud8ChuTrlsNvuFz3QuCy-79" target="ud8ChuTrlsNvuFz3QuCy-81">
          <mxGeometry relative="1" as="geometry" />
        </mxCell>
        <mxCell id="ud8ChuTrlsNvuFz3QuCy-87" value="&amp;lt;&amp;lt;includes&amp;gt;&amp;gt;" style="edgeLabel;html=1;align=center;verticalAlign=middle;resizable=0;points=[];" vertex="1" connectable="0" parent="ud8ChuTrlsNvuFz3QuCy-86">
          <mxGeometry x="0.0002" relative="1" as="geometry">
            <mxPoint as="offset" />
          </mxGeometry>
        </mxCell>
        <mxCell id="ud8ChuTrlsNvuFz3QuCy-151" style="edgeStyle=orthogonalEdgeStyle;rounded=0;orthogonalLoop=1;jettySize=auto;html=1;exitX=1;exitY=0.5;exitDx=0;exitDy=0;entryX=0.5;entryY=0;entryDx=0;entryDy=0;" edge="1" parent="1" source="ud8ChuTrlsNvuFz3QuCy-88" target="ud8ChuTrlsNvuFz3QuCy-150">
          <mxGeometry relative="1" as="geometry" />
        </mxCell>
        <mxCell id="ud8ChuTrlsNvuFz3QuCy-88" value="Draw if neither player can make anymore moves" style="ellipse;whiteSpace=wrap;html=1;" vertex="1" parent="1">
          <mxGeometry x="1530" y="440.4" width="150" height="52.2" as="geometry" />
        </mxCell>
        <mxCell id="ud8ChuTrlsNvuFz3QuCy-152" style="edgeStyle=orthogonalEdgeStyle;rounded=0;orthogonalLoop=1;jettySize=auto;html=1;exitX=1;exitY=0.5;exitDx=0;exitDy=0;entryX=0;entryY=0;entryDx=0;entryDy=0;" edge="1" parent="1" source="ud8ChuTrlsNvuFz3QuCy-89" target="ud8ChuTrlsNvuFz3QuCy-150">
          <mxGeometry relative="1" as="geometry" />
        </mxCell>
        <mxCell id="ud8ChuTrlsNvuFz3QuCy-89" value="A player wins if they have 3 &quot;owned&quot; tiles in a row" style="ellipse;whiteSpace=wrap;html=1;" vertex="1" parent="1">
          <mxGeometry x="1640" y="507.58000000000004" width="170" height="66.21" as="geometry" />
        </mxCell>
        <mxCell id="ud8ChuTrlsNvuFz3QuCy-153" style="edgeStyle=orthogonalEdgeStyle;rounded=0;orthogonalLoop=1;jettySize=auto;html=1;exitX=1;exitY=0.5;exitDx=0;exitDy=0;entryX=0;entryY=0.5;entryDx=0;entryDy=0;" edge="1" parent="1" source="ud8ChuTrlsNvuFz3QuCy-90" target="ud8ChuTrlsNvuFz3QuCy-150">
          <mxGeometry relative="1" as="geometry" />
        </mxCell>
        <mxCell id="ud8ChuTrlsNvuFz3QuCy-90" value="Game continues if there are still open tiles, and neither player has 3 &quot;owned&quot; tiles in a row" style="ellipse;whiteSpace=wrap;html=1;" vertex="1" parent="1">
          <mxGeometry x="1580" y="590" width="200" height="96.52" as="geometry" />
        </mxCell>
        <mxCell id="ud8ChuTrlsNvuFz3QuCy-91" value="End Player&#39;s Turn" style="ellipse;whiteSpace=wrap;html=1;" vertex="1" parent="1">
          <mxGeometry x="1147.47" y="338" width="111.43080000000002" height="41.36552535232459" as="geometry" />
        </mxCell>
        <mxCell id="ud8ChuTrlsNvuFz3QuCy-96" value="Quit" style="ellipse;whiteSpace=wrap;html=1;" vertex="1" parent="1">
          <mxGeometry x="586" y="994" width="50" height="30" as="geometry" />
        </mxCell>
        <mxCell id="ud8ChuTrlsNvuFz3QuCy-97" value="Settings" style="ellipse;whiteSpace=wrap;html=1;" vertex="1" parent="1">
          <mxGeometry x="586" y="889" width="50" height="30" as="geometry" />
        </mxCell>
        <mxCell id="ud8ChuTrlsNvuFz3QuCy-98" value="Input" style="ellipse;whiteSpace=wrap;html=1;" vertex="1" parent="1">
          <mxGeometry x="586" y="940" width="50" height="30" as="geometry" />
        </mxCell>
        <mxCell id="ud8ChuTrlsNvuFz3QuCy-99" value="Disconnect" style="ellipse;whiteSpace=wrap;html=1;" vertex="1" parent="1">
          <mxGeometry x="576" y="1064" width="70" height="40" as="geometry" />
        </mxCell>
        <mxCell id="ud8ChuTrlsNvuFz3QuCy-100" value="Handle&lt;br&gt;Input" style="ellipse;whiteSpace=wrap;html=1;" vertex="1" parent="1">
          <mxGeometry x="696" y="914" width="70" height="40" as="geometry" />
        </mxCell>
        <mxCell id="ud8ChuTrlsNvuFz3QuCy-101" value="Validate&lt;br&gt;Input" style="ellipse;whiteSpace=wrap;html=1;" vertex="1" parent="1">
          <mxGeometry x="696" y="1034" width="70" height="40" as="geometry" />
        </mxCell>
        <mxCell id="ud8ChuTrlsNvuFz3QuCy-102" value="Select column" style="ellipse;whiteSpace=wrap;html=1;" vertex="1" parent="1">
          <mxGeometry x="816" y="954" width="70" height="40" as="geometry" />
        </mxCell>
        <mxCell id="ud8ChuTrlsNvuFz3QuCy-103" value="Place &lt;br&gt;token" style="ellipse;whiteSpace=wrap;html=1;" vertex="1" parent="1">
          <mxGeometry x="816" y="1024" width="70" height="40" as="geometry" />
        </mxCell>
        <mxCell id="ud8ChuTrlsNvuFz3QuCy-104" value="Update game state" style="ellipse;whiteSpace=wrap;html=1;" vertex="1" parent="1">
          <mxGeometry x="726" y="1100" width="100" height="40" as="geometry" />
        </mxCell>
        <mxCell id="ud8ChuTrlsNvuFz3QuCy-105" value="Update turn status" style="ellipse;whiteSpace=wrap;html=1;" vertex="1" parent="1">
          <mxGeometry x="791" y="1174" width="100" height="40" as="geometry" />
        </mxCell>
        <mxCell id="ud8ChuTrlsNvuFz3QuCy-106" value="End player&#39;s turn" style="ellipse;whiteSpace=wrap;html=1;" vertex="1" parent="1">
          <mxGeometry x="801" y="1264" width="80" height="50" as="geometry" />
        </mxCell>
        <mxCell id="ud8ChuTrlsNvuFz3QuCy-107" value="Update hint status" style="ellipse;whiteSpace=wrap;html=1;" vertex="1" parent="1">
          <mxGeometry x="811" y="877" width="80" height="45" as="geometry" />
        </mxCell>
        <mxCell id="ud8ChuTrlsNvuFz3QuCy-108" value="Highlight tiles in valid columns that can be selected" style="ellipse;whiteSpace=wrap;html=1;" vertex="1" parent="1">
          <mxGeometry x="766" y="789" width="175" height="56" as="geometry" />
        </mxCell>
        <mxCell id="ud8ChuTrlsNvuFz3QuCy-109" value="Determine if the game should end" style="ellipse;whiteSpace=wrap;html=1;" vertex="1" parent="1">
          <mxGeometry x="941" y="1098" width="120" height="44" as="geometry" />
        </mxCell>
        <mxCell id="ud8ChuTrlsNvuFz3QuCy-154" style="edgeStyle=orthogonalEdgeStyle;rounded=0;orthogonalLoop=1;jettySize=auto;html=1;exitX=1;exitY=0.5;exitDx=0;exitDy=0;entryX=0;entryY=1;entryDx=0;entryDy=0;" edge="1" parent="1" source="ud8ChuTrlsNvuFz3QuCy-110" target="ud8ChuTrlsNvuFz3QuCy-150">
          <mxGeometry relative="1" as="geometry">
            <Array as="points">
              <mxPoint x="1254" y="900" />
              <mxPoint x="2043" y="900" />
            </Array>
          </mxGeometry>
        </mxCell>
        <mxCell id="ud8ChuTrlsNvuFz3QuCy-110" value="Game continues if board is unfilled and win conditions are possible" style="ellipse;whiteSpace=wrap;html=1;" vertex="1" parent="1">
          <mxGeometry x="1084" y="965" width="170" height="75" as="geometry" />
        </mxCell>
        <mxCell id="ud8ChuTrlsNvuFz3QuCy-155" style="edgeStyle=orthogonalEdgeStyle;rounded=0;orthogonalLoop=1;jettySize=auto;html=1;exitX=1;exitY=0.5;exitDx=0;exitDy=0;entryX=0.5;entryY=1;entryDx=0;entryDy=0;" edge="1" parent="1" source="ud8ChuTrlsNvuFz3QuCy-111" target="ud8ChuTrlsNvuFz3QuCy-150">
          <mxGeometry relative="1" as="geometry">
            <Array as="points">
              <mxPoint x="1376" y="960" />
              <mxPoint x="2105" y="960" />
            </Array>
          </mxGeometry>
        </mxCell>
        <mxCell id="ud8ChuTrlsNvuFz3QuCy-111" value="A player wins if they have 4 pieces connected in a pattern (horizontal, vertical, diagonal)" style="ellipse;whiteSpace=wrap;html=1;" vertex="1" parent="1">
          <mxGeometry x="1196" y="1074" width="180" height="70" as="geometry" />
        </mxCell>
        <mxCell id="ud8ChuTrlsNvuFz3QuCy-156" style="edgeStyle=orthogonalEdgeStyle;rounded=0;orthogonalLoop=1;jettySize=auto;html=1;exitX=1;exitY=0.5;exitDx=0;exitDy=0;entryX=1;entryY=1;entryDx=0;entryDy=0;" edge="1" parent="1" source="ud8ChuTrlsNvuFz3QuCy-112" target="ud8ChuTrlsNvuFz3QuCy-150">
          <mxGeometry relative="1" as="geometry">
            <Array as="points">
              <mxPoint x="1276" y="1170" />
              <mxPoint x="2167" y="1170" />
            </Array>
          </mxGeometry>
        </mxCell>
        <mxCell id="ud8ChuTrlsNvuFz3QuCy-112" value="Game is a draw if no win conditions are possible for either player" style="ellipse;whiteSpace=wrap;html=1;" vertex="1" parent="1">
          <mxGeometry x="1096" y="1174" width="180" height="60" as="geometry" />
        </mxCell>
        <mxCell id="ud8ChuTrlsNvuFz3QuCy-113" value="" style="endArrow=classic;html=1;rounded=0;exitX=0.714;exitY=0.089;exitDx=0;exitDy=0;exitPerimeter=0;entryX=0.084;entryY=0.71;entryDx=0;entryDy=0;entryPerimeter=0;" edge="1" parent="1" source="ud8ChuTrlsNvuFz3QuCy-109" target="ud8ChuTrlsNvuFz3QuCy-110">
          <mxGeometry relative="1" as="geometry">
            <mxPoint x="1096" y="1104" as="sourcePoint" />
            <mxPoint x="1196" y="1104" as="targetPoint" />
          </mxGeometry>
        </mxCell>
        <mxCell id="ud8ChuTrlsNvuFz3QuCy-114" value="&amp;lt;&amp;lt;includes&amp;gt;&amp;gt;" style="edgeLabel;resizable=0;html=1;;align=center;verticalAlign=middle;" connectable="0" vertex="1" parent="ud8ChuTrlsNvuFz3QuCy-113">
          <mxGeometry relative="1" as="geometry" />
        </mxCell>
        <mxCell id="ud8ChuTrlsNvuFz3QuCy-115" value="" style="endArrow=classic;html=1;rounded=0;exitX=1;exitY=0.5;exitDx=0;exitDy=0;entryX=0;entryY=0.5;entryDx=0;entryDy=0;" edge="1" parent="1" source="ud8ChuTrlsNvuFz3QuCy-109" target="ud8ChuTrlsNvuFz3QuCy-111">
          <mxGeometry relative="1" as="geometry">
            <mxPoint x="1047" y="1110" as="sourcePoint" />
            <mxPoint x="1103" y="1031" as="targetPoint" />
          </mxGeometry>
        </mxCell>
        <mxCell id="ud8ChuTrlsNvuFz3QuCy-116" value="&amp;lt;&amp;lt;includes&amp;gt;&amp;gt;" style="edgeLabel;resizable=0;html=1;;align=center;verticalAlign=middle;" connectable="0" vertex="1" parent="ud8ChuTrlsNvuFz3QuCy-115">
          <mxGeometry relative="1" as="geometry" />
        </mxCell>
        <mxCell id="ud8ChuTrlsNvuFz3QuCy-117" value="" style="endArrow=classic;html=1;rounded=0;exitX=0.5;exitY=1;exitDx=0;exitDy=0;entryX=0.036;entryY=0.301;entryDx=0;entryDy=0;entryPerimeter=0;" edge="1" parent="1" source="ud8ChuTrlsNvuFz3QuCy-109" target="ud8ChuTrlsNvuFz3QuCy-112">
          <mxGeometry relative="1" as="geometry">
            <mxPoint x="1047" y="1110" as="sourcePoint" />
            <mxPoint x="1103" y="1031" as="targetPoint" />
          </mxGeometry>
        </mxCell>
        <mxCell id="ud8ChuTrlsNvuFz3QuCy-118" value="&amp;lt;&amp;lt;includes&amp;gt;&amp;gt;" style="edgeLabel;resizable=0;html=1;;align=center;verticalAlign=middle;" connectable="0" vertex="1" parent="ud8ChuTrlsNvuFz3QuCy-117">
          <mxGeometry relative="1" as="geometry" />
        </mxCell>
        <mxCell id="ud8ChuTrlsNvuFz3QuCy-119" value="" style="endArrow=classic;html=1;rounded=0;exitX=1;exitY=0.5;exitDx=0;exitDy=0;entryX=0;entryY=0.5;entryDx=0;entryDy=0;" edge="1" parent="1" source="ud8ChuTrlsNvuFz3QuCy-104" target="ud8ChuTrlsNvuFz3QuCy-109">
          <mxGeometry relative="1" as="geometry">
            <mxPoint x="1081" y="1128" as="sourcePoint" />
            <mxPoint x="1181" y="1119" as="targetPoint" />
          </mxGeometry>
        </mxCell>
        <mxCell id="ud8ChuTrlsNvuFz3QuCy-120" value="&amp;lt;&amp;lt;includes&amp;gt;&amp;gt;" style="edgeLabel;resizable=0;html=1;;align=center;verticalAlign=middle;" connectable="0" vertex="1" parent="ud8ChuTrlsNvuFz3QuCy-119">
          <mxGeometry relative="1" as="geometry" />
        </mxCell>
        <mxCell id="ud8ChuTrlsNvuFz3QuCy-121" value="" style="endArrow=classic;html=1;rounded=0;exitX=0.5;exitY=1;exitDx=0;exitDy=0;entryX=0.5;entryY=0;entryDx=0;entryDy=0;" edge="1" parent="1" source="ud8ChuTrlsNvuFz3QuCy-103" target="ud8ChuTrlsNvuFz3QuCy-104">
          <mxGeometry relative="1" as="geometry">
            <mxPoint x="836" y="1130" as="sourcePoint" />
            <mxPoint x="961" y="1128" as="targetPoint" />
          </mxGeometry>
        </mxCell>
        <mxCell id="ud8ChuTrlsNvuFz3QuCy-122" value="&amp;lt;&amp;lt;includes&amp;gt;&amp;gt;" style="edgeLabel;resizable=0;html=1;;align=center;verticalAlign=middle;" connectable="0" vertex="1" parent="ud8ChuTrlsNvuFz3QuCy-121">
          <mxGeometry relative="1" as="geometry" />
        </mxCell>
        <mxCell id="ud8ChuTrlsNvuFz3QuCy-123" value="" style="endArrow=classic;html=1;rounded=0;exitX=0.5;exitY=1;exitDx=0;exitDy=0;entryX=0.5;entryY=0;entryDx=0;entryDy=0;" edge="1" parent="1" source="ud8ChuTrlsNvuFz3QuCy-102" target="ud8ChuTrlsNvuFz3QuCy-103">
          <mxGeometry relative="1" as="geometry">
            <mxPoint x="861" y="1074" as="sourcePoint" />
            <mxPoint x="786" y="1110" as="targetPoint" />
          </mxGeometry>
        </mxCell>
        <mxCell id="ud8ChuTrlsNvuFz3QuCy-124" value="&amp;lt;&amp;lt;excludes&amp;gt;&amp;gt;" style="edgeLabel;resizable=0;html=1;;align=center;verticalAlign=middle;" connectable="0" vertex="1" parent="ud8ChuTrlsNvuFz3QuCy-123">
          <mxGeometry relative="1" as="geometry" />
        </mxCell>
        <mxCell id="ud8ChuTrlsNvuFz3QuCy-125" value="" style="endArrow=classic;html=1;rounded=0;exitX=0.5;exitY=0;exitDx=0;exitDy=0;entryX=0.5;entryY=1;entryDx=0;entryDy=0;" edge="1" parent="1" source="ud8ChuTrlsNvuFz3QuCy-102" target="ud8ChuTrlsNvuFz3QuCy-107">
          <mxGeometry relative="1" as="geometry">
            <mxPoint x="861" y="1004" as="sourcePoint" />
            <mxPoint x="861" y="1034" as="targetPoint" />
          </mxGeometry>
        </mxCell>
        <mxCell id="ud8ChuTrlsNvuFz3QuCy-126" value="&amp;lt;&amp;lt;includes&amp;gt;&amp;gt;" style="edgeLabel;resizable=0;html=1;;align=center;verticalAlign=middle;" connectable="0" vertex="1" parent="ud8ChuTrlsNvuFz3QuCy-125">
          <mxGeometry relative="1" as="geometry" />
        </mxCell>
        <mxCell id="ud8ChuTrlsNvuFz3QuCy-127" value="" style="endArrow=classic;html=1;rounded=0;exitX=0.5;exitY=0;exitDx=0;exitDy=0;entryX=0.5;entryY=1;entryDx=0;entryDy=0;" edge="1" parent="1" source="ud8ChuTrlsNvuFz3QuCy-107" target="ud8ChuTrlsNvuFz3QuCy-108">
          <mxGeometry relative="1" as="geometry">
            <mxPoint x="861" y="964" as="sourcePoint" />
            <mxPoint x="861" y="934" as="targetPoint" />
          </mxGeometry>
        </mxCell>
        <mxCell id="ud8ChuTrlsNvuFz3QuCy-128" value="&amp;lt;&amp;lt;includes&amp;gt;&amp;gt;" style="edgeLabel;resizable=0;html=1;;align=center;verticalAlign=middle;" connectable="0" vertex="1" parent="ud8ChuTrlsNvuFz3QuCy-127">
          <mxGeometry relative="1" as="geometry" />
        </mxCell>
        <mxCell id="ud8ChuTrlsNvuFz3QuCy-129" value="" style="endArrow=classic;html=1;rounded=0;exitX=0.5;exitY=1;exitDx=0;exitDy=0;entryX=0.5;entryY=0;entryDx=0;entryDy=0;" edge="1" parent="1" source="ud8ChuTrlsNvuFz3QuCy-104" target="ud8ChuTrlsNvuFz3QuCy-105">
          <mxGeometry relative="1" as="geometry">
            <mxPoint x="861" y="1074" as="sourcePoint" />
            <mxPoint x="786" y="1110" as="targetPoint" />
          </mxGeometry>
        </mxCell>
        <mxCell id="ud8ChuTrlsNvuFz3QuCy-130" value="&amp;lt;&amp;lt;includes&amp;gt;&amp;gt;" style="edgeLabel;resizable=0;html=1;;align=center;verticalAlign=middle;" connectable="0" vertex="1" parent="ud8ChuTrlsNvuFz3QuCy-129">
          <mxGeometry relative="1" as="geometry" />
        </mxCell>
        <mxCell id="ud8ChuTrlsNvuFz3QuCy-131" value="" style="endArrow=classic;html=1;rounded=0;exitX=0.5;exitY=1;exitDx=0;exitDy=0;entryX=0.5;entryY=0;entryDx=0;entryDy=0;" edge="1" parent="1" source="ud8ChuTrlsNvuFz3QuCy-105" target="ud8ChuTrlsNvuFz3QuCy-106">
          <mxGeometry relative="1" as="geometry">
            <mxPoint x="786" y="1150" as="sourcePoint" />
            <mxPoint x="861" y="1184" as="targetPoint" />
          </mxGeometry>
        </mxCell>
        <mxCell id="ud8ChuTrlsNvuFz3QuCy-132" value="&amp;lt;&amp;lt;includes&amp;gt;&amp;gt;" style="edgeLabel;resizable=0;html=1;;align=center;verticalAlign=middle;" connectable="0" vertex="1" parent="ud8ChuTrlsNvuFz3QuCy-131">
          <mxGeometry relative="1" as="geometry" />
        </mxCell>
        <mxCell id="ud8ChuTrlsNvuFz3QuCy-133" value="" style="endArrow=classic;html=1;rounded=0;entryX=0.5;entryY=0;entryDx=0;entryDy=0;exitX=0.5;exitY=1;exitDx=0;exitDy=0;" edge="1" parent="1" source="ud8ChuTrlsNvuFz3QuCy-100" target="ud8ChuTrlsNvuFz3QuCy-101">
          <mxGeometry relative="1" as="geometry">
            <mxPoint x="861" y="1004" as="sourcePoint" />
            <mxPoint x="861" y="1034" as="targetPoint" />
          </mxGeometry>
        </mxCell>
        <mxCell id="ud8ChuTrlsNvuFz3QuCy-134" value="&amp;lt;&amp;lt;includes&amp;gt;&amp;gt;" style="edgeLabel;resizable=0;html=1;;align=center;verticalAlign=middle;" connectable="0" vertex="1" parent="ud8ChuTrlsNvuFz3QuCy-133">
          <mxGeometry relative="1" as="geometry" />
        </mxCell>
        <mxCell id="ud8ChuTrlsNvuFz3QuCy-135" value="" style="endArrow=classic;html=1;rounded=0;exitX=0;exitY=0.5;exitDx=0;exitDy=0;entryX=1;entryY=0.5;entryDx=0;entryDy=0;" edge="1" parent="1" source="ud8ChuTrlsNvuFz3QuCy-102" target="ud8ChuTrlsNvuFz3QuCy-100">
          <mxGeometry relative="1" as="geometry">
            <mxPoint x="871" y="1014" as="sourcePoint" />
            <mxPoint x="871" y="1044" as="targetPoint" />
          </mxGeometry>
        </mxCell>
        <mxCell id="ud8ChuTrlsNvuFz3QuCy-136" value="&amp;lt;&amp;lt;extends&amp;gt;&amp;gt;" style="edgeLabel;resizable=0;html=1;;align=center;verticalAlign=middle;" connectable="0" vertex="1" parent="ud8ChuTrlsNvuFz3QuCy-135">
          <mxGeometry relative="1" as="geometry" />
        </mxCell>
        <mxCell id="ud8ChuTrlsNvuFz3QuCy-137" value="" style="endArrow=classic;html=1;rounded=0;exitX=0;exitY=0.5;exitDx=0;exitDy=0;entryX=1;entryY=0.5;entryDx=0;entryDy=0;" edge="1" parent="1" source="ud8ChuTrlsNvuFz3QuCy-100" target="ud8ChuTrlsNvuFz3QuCy-98">
          <mxGeometry relative="1" as="geometry">
            <mxPoint x="826" y="984" as="sourcePoint" />
            <mxPoint x="776" y="944" as="targetPoint" />
          </mxGeometry>
        </mxCell>
        <mxCell id="ud8ChuTrlsNvuFz3QuCy-138" value="&amp;lt;&amp;lt;extends&amp;gt;&amp;gt;" style="edgeLabel;resizable=0;html=1;;align=center;verticalAlign=middle;" connectable="0" vertex="1" parent="ud8ChuTrlsNvuFz3QuCy-137">
          <mxGeometry relative="1" as="geometry" />
        </mxCell>
        <mxCell id="ud8ChuTrlsNvuFz3QuCy-139" value="Return to game" style="ellipse;whiteSpace=wrap;html=1;" vertex="1" parent="1">
          <mxGeometry x="576" y="814" width="70" height="40" as="geometry" />
        </mxCell>
        <mxCell id="ud8ChuTrlsNvuFz3QuCy-140" value="" style="endArrow=classic;html=1;rounded=0;exitX=0.5;exitY=1;exitDx=0;exitDy=0;entryX=0.5;entryY=0;entryDx=0;entryDy=0;" edge="1" parent="1" source="ud8ChuTrlsNvuFz3QuCy-139" target="ud8ChuTrlsNvuFz3QuCy-97">
          <mxGeometry relative="1" as="geometry">
            <mxPoint x="706" y="944" as="sourcePoint" />
            <mxPoint x="646" y="989" as="targetPoint" />
          </mxGeometry>
        </mxCell>
        <mxCell id="ud8ChuTrlsNvuFz3QuCy-141" value="&amp;lt;&amp;lt;extends&amp;gt;&amp;gt;" style="edgeLabel;resizable=0;html=1;;align=center;verticalAlign=middle;" connectable="0" vertex="1" parent="ud8ChuTrlsNvuFz3QuCy-140">
          <mxGeometry relative="1" as="geometry" />
        </mxCell>
        <mxCell id="ud8ChuTrlsNvuFz3QuCy-142" value="" style="endArrow=classic;html=1;rounded=0;exitX=0.5;exitY=0;exitDx=0;exitDy=0;entryX=0.5;entryY=1;entryDx=0;entryDy=0;" edge="1" parent="1" source="ud8ChuTrlsNvuFz3QuCy-99" target="ud8ChuTrlsNvuFz3QuCy-96">
          <mxGeometry relative="1" as="geometry">
            <mxPoint x="621" y="864" as="sourcePoint" />
            <mxPoint x="621" y="899" as="targetPoint" />
          </mxGeometry>
        </mxCell>
        <mxCell id="ud8ChuTrlsNvuFz3QuCy-143" value="&amp;lt;&amp;lt;extends&amp;gt;&amp;gt;" style="edgeLabel;resizable=0;html=1;;align=center;verticalAlign=middle;" connectable="0" vertex="1" parent="ud8ChuTrlsNvuFz3QuCy-142">
          <mxGeometry relative="1" as="geometry" />
        </mxCell>
        <mxCell id="ud8ChuTrlsNvuFz3QuCy-145" style="edgeStyle=orthogonalEdgeStyle;rounded=0;orthogonalLoop=1;jettySize=auto;html=1;endArrow=block;endFill=0;exitX=0;exitY=0.5;exitDx=0;exitDy=0;entryX=0.5;entryY=1;entryDx=0;entryDy=0;" edge="1" parent="1" source="ud8ChuTrlsNvuFz3QuCy-98" target="ud8ChuTrlsNvuFz3QuCy-37">
          <mxGeometry relative="1" as="geometry">
            <mxPoint x="450" y="935" as="targetPoint" />
            <mxPoint x="530" y="935" as="sourcePoint" />
            <Array as="points">
              <mxPoint x="550" y="955" />
              <mxPoint x="550" y="750" />
              <mxPoint x="584" y="750" />
            </Array>
          </mxGeometry>
        </mxCell>
        <mxCell id="ud8ChuTrlsNvuFz3QuCy-148" value="" style="endArrow=none;html=1;rounded=0;entryX=0;entryY=0.5;entryDx=0;entryDy=0;" edge="1" parent="1" target="ud8ChuTrlsNvuFz3QuCy-96">
          <mxGeometry width="50" height="50" relative="1" as="geometry">
            <mxPoint x="550" y="900" as="sourcePoint" />
            <mxPoint x="576" y="1002.14" as="targetPoint" />
            <Array as="points">
              <mxPoint x="550" y="1010" />
            </Array>
          </mxGeometry>
        </mxCell>
        <mxCell id="ud8ChuTrlsNvuFz3QuCy-149" value="" style="endArrow=none;html=1;rounded=0;entryX=0;entryY=0.5;entryDx=0;entryDy=0;" edge="1" parent="1">
          <mxGeometry width="50" height="50" relative="1" as="geometry">
            <mxPoint x="550" y="904" as="sourcePoint" />
            <mxPoint x="586" y="904" as="targetPoint" />
          </mxGeometry>
        </mxCell>
        <mxCell id="ud8ChuTrlsNvuFz3QuCy-150" value="End game session" style="ellipse;whiteSpace=wrap;html=1;" vertex="1" parent="1">
          <mxGeometry x="2020" y="760" width="170" height="66.21" as="geometry" />
        </mxCell>
        <mxCell id="ud8ChuTrlsNvuFz3QuCy-157" value="Chat in game" style="ellipse;whiteSpace=wrap;html=1;" vertex="1" parent="1">
          <mxGeometry x="590" y="290" width="140" height="70" as="geometry" />
        </mxCell>
        <mxCell id="ud8ChuTrlsNvuFz3QuCy-161" value="&amp;lt;&amp;lt;extends&amp;gt;&amp;gt;" style="endArrow=open;endSize=12;dashed=1;html=1;rounded=0;entryX=0.5;entryY=0;entryDx=0;entryDy=0;exitX=0.5;exitY=1;exitDx=0;exitDy=0;" edge="1" parent="1" source="ud8ChuTrlsNvuFz3QuCy-162" target="ud8ChuTrlsNvuFz3QuCy-157">
          <mxGeometry width="160" relative="1" as="geometry">
            <mxPoint x="1150" y="680" as="sourcePoint" />
            <mxPoint x="1310" y="680" as="targetPoint" />
          </mxGeometry>
        </mxCell>
        <mxCell id="ud8ChuTrlsNvuFz3QuCy-162" value="Message filtering" style="ellipse;whiteSpace=wrap;html=1;" vertex="1" parent="1">
          <mxGeometry x="587" y="170" width="140" height="70" as="geometry" />
        </mxCell>
      </root>
    </mxGraphModel>
  </diagram>
</mxfile>
